<svg width="21" height="23" viewBox="0 0 21 23" fill="none" xmlns="http://www.w3.org/2000/svg">
<g clip-path="url(#clip0_1_675)">
<path d="M20.16 1.6001H0.84C0.375375 1.6001 0 1.97369 0 2.4361V21.6641C0 22.1265 0.375375 22.5001 0.84 22.5001H20.16C20.6246 22.5001 21 22.1265 21 21.6641V2.4361C21 1.97369 20.6246 1.6001 20.16 1.6001ZM19.32 20.8281H14.4874V14.4066H17.2174L17.6269 11.2533H14.4874V9.23905C14.4874 8.32467 14.742 7.7029 16.0571 7.7029H17.7345V4.8814C17.4431 4.84221 16.4482 4.756 15.288 4.756C12.8678 4.756 11.2114 6.22683 11.2114 8.92555V11.2507H8.47612V14.404H11.214V20.8281H1.68V3.2721H19.32V20.8281Z" fill="white"/>
</g>
<defs>
<clipPath id="clip0_1_675">
<rect width="21" height="22" fill="white" transform="translate(0 0.5)"/>
</clipPath>
</defs>
</svg>
