<svg width="22" height="23" viewBox="0 0 22 23" fill="none" xmlns="http://www.w3.org/2000/svg">
<g clip-path="url(#clip0_1_669)">
<path d="M21.2344 2.70007L21.9678 2.65167C21.9583 2.5077 21.9065 2.36974 21.8189 2.25506C21.7314 2.14038 21.6119 2.05407 21.4756 2.00694C21.3392 1.95982 21.192 1.95396 21.0523 1.99012C20.9126 2.02627 20.7867 2.10283 20.6903 2.2102L21.2344 2.70007ZM20.504 7.03994C20.504 6.84544 20.4268 6.65892 20.2893 6.52139C20.1517 6.38386 19.9652 6.3066 19.7707 6.3066C19.5762 6.3066 19.3897 6.38386 19.2522 6.52139C19.1146 6.65892 19.0374 6.84544 19.0374 7.03994H20.504ZM0.733378 18.8334V18.1001C0.575915 18.0999 0.422572 18.1504 0.296033 18.2441C0.169494 18.3378 0.0764805 18.4698 0.0307512 18.6204C-0.014978 18.7711 -0.0109936 18.9325 0.0421149 19.0807C0.0952234 19.229 0.194635 19.3562 0.325644 19.4435L0.733378 18.8334ZM2.19711 2.70007L2.88498 2.4434C2.83499 2.30951 2.74697 2.19314 2.63173 2.1086C2.51649 2.02406 2.37906 1.97504 2.23633 1.96756C2.09361 1.96008 1.95181 1.99447 1.82837 2.0665C1.70492 2.13853 1.60522 2.24506 1.54151 2.373L2.19711 2.70007ZM8.05498 15.9001L8.57418 16.4178C8.66227 16.3294 8.72635 16.2201 8.76037 16.1C8.79438 15.98 8.79721 15.8532 8.76857 15.7318C8.73994 15.6103 8.68079 15.4982 8.59673 15.406C8.51266 15.3138 8.40646 15.2446 8.28818 15.2049L8.05498 15.9001ZM18.6502 4.12714L18.1075 4.61994L18.3715 4.9118L18.7602 4.85314L18.6502 4.12714ZM20.504 2.74847C20.5788 3.88954 20.5084 4.5818 20.3236 5.10394C20.1447 5.60994 19.8308 6.02647 19.2632 6.5706L20.2782 7.62954C20.9206 7.01354 21.4163 6.40927 21.7067 5.5938C21.9898 4.793 22.0484 3.86607 21.9678 2.65167L20.504 2.74847ZM20.504 8.10767V7.03994H19.0374V8.10914H20.504V8.10767ZM10.252 7.1602V8.56674H11.7187V7.1602H10.252ZM10.252 8.56674V9.30007H11.7187V8.56674H10.252ZM15.4367 1.96674C14.7551 1.96712 14.0802 2.10176 13.4506 2.36296C12.821 2.62417 12.249 3.00682 11.7673 3.48908C11.2856 3.97134 10.9036 4.54376 10.6431 5.17365C10.3826 5.80354 10.2487 6.47857 10.2491 7.1602H11.7158C11.7154 6.67105 11.8114 6.18662 11.9983 5.73458C12.1851 5.28254 12.4592 4.87174 12.8049 4.52565C13.1506 4.17957 13.5611 3.90498 14.0129 3.71757C14.4647 3.53015 14.949 3.43359 15.4382 3.4334V1.96674H15.4367ZM19.0359 8.10767C19.0374 14.4378 13.9143 19.5667 7.59738 19.5667V21.0334C14.7254 21.0334 20.504 15.2459 20.504 8.10767H19.0359ZM1.51071 2.95674C2.30858 5.08634 5.30058 9.30007 10.9854 9.30007V7.8334C6.12191 7.8334 3.55084 4.2254 2.88351 2.4434L1.51071 2.95674ZM1.54151 2.373C0.00591078 5.44714 -0.230222 8.43034 0.885911 10.9706C1.99911 13.5035 4.39418 15.4513 7.82324 16.5953L8.28818 15.2049C5.12751 14.1489 3.12844 12.4299 2.22791 10.3795C1.33031 8.33647 1.46084 5.8182 2.85418 3.02714L1.54151 2.373ZM7.53578 15.3823C6.65284 16.2667 3.99818 18.1001 0.733378 18.1001V19.5667C4.49684 19.5667 7.50498 17.4899 8.57418 16.4178L7.53578 15.3823ZM19.1943 3.6358C18.7201 3.10993 18.1407 2.6896 17.4936 2.40207C16.8466 2.11453 16.1463 1.96622 15.4382 1.96674V3.4334C16.4956 3.4334 17.4475 3.88954 18.1075 4.61994L19.1943 3.6358ZM18.7602 4.85314C19.9284 4.66227 20.9954 4.07495 21.7815 3.18994L20.6903 2.2102C20.1311 2.84195 19.3722 3.26283 18.5402 3.4026L18.7602 4.85314ZM0.325644 19.4435C2.73244 21.0481 5.25511 21.0334 7.59738 21.0334V19.5667C5.20671 19.5667 3.12698 19.5506 1.14111 18.2233L0.325644 19.4435Z" fill="white"/>
</g>
<defs>
<clipPath id="clip0_1_669">
<rect width="22" height="22" fill="white" transform="translate(0 0.5)"/>
</clipPath>
</defs>
</svg>
